<svg width="94" height="67" viewBox="0 0 94 67" fill="none" xmlns="http://www.w3.org/2000/svg">
<path d="M1.11731e-05 7.13266C0.537126 6.36787 1.27045 6.15529 2.19752 6.15774C21.6244 6.17973 41.0488 6.1724 60.4757 6.17484C62.2146 6.17484 62.6462 6.60488 62.6487 8.3275C62.6511 11.1888 62.6487 14.0476 62.6487 17.009C63.0656 17.031 63.4164 17.0676 63.7671 17.0676C68.3853 17.0725 73.0059 17.0921 77.6241 17.0554C78.7205 17.0457 79.4342 17.4244 80.0301 18.3578C84.4644 25.2922 88.9526 32.1949 93.3844 39.1318C93.7376 39.684 93.9608 40.4244 93.9681 41.0768C94.0147 46.4108 93.9951 51.7448 93.9927 57.0763C93.9927 58.7477 93.4948 59.2339 91.7878 59.2339C89.3745 59.2363 86.9611 59.2339 84.5159 59.2339C84.3467 59.7959 84.2118 60.3237 84.0278 60.8295C82.6348 64.6681 78.9167 67.1653 74.8675 66.9918C70.6735 66.8134 67.1762 64.0475 66.1191 60.028C65.9768 59.4856 65.8272 59.2144 65.1822 59.2168C54.0156 59.2388 42.8515 59.2315 31.6849 59.2339C31.5647 59.2339 31.4445 59.2486 31.2851 59.2608C29.8871 64.1427 26.819 67.1213 21.5484 66.9429C16.6726 66.7768 13.8571 63.852 12.5842 59.2339C9.14077 59.2339 5.68509 59.2095 2.23186 59.2486C1.25818 59.2608 0.50279 59.0115 -0.00244141 58.1588C1.11731e-05 41.1525 1.11731e-05 24.1438 1.11731e-05 7.13266ZM3.19327 9.32931C3.19327 22.8855 3.19327 36.339 3.19327 49.9049C5.80772 49.9049 8.3584 49.9049 10.9213 49.9049C10.9213 50.98 10.9213 51.9378 10.9213 53.0032C8.3118 53.0032 5.75867 53.0032 3.20308 53.0032C3.20308 54.0954 3.20308 55.0776 3.20308 56.1161C4.83404 56.1161 6.39143 56.1161 7.94637 56.1161C9.5013 56.1161 11.0538 56.1161 12.5768 56.1161C14.4285 50.9043 17.325 48.4193 21.6367 48.302C23.584 48.2507 25.3916 48.7418 27.0274 49.7998C29.323 51.2879 30.6573 53.443 31.2263 56.0501C40.6736 56.0501 50.0522 56.0501 59.4432 56.0501C59.4432 55.0214 59.4432 54.0587 59.4432 52.9689C50.5796 52.9689 41.7625 52.9689 32.9455 52.9689C32.9455 51.8816 32.9455 50.9189 32.9455 49.8609C41.8018 49.8609 50.5992 49.8609 59.4554 49.8609C59.4554 38.3841 59.4554 27.0026 59.4554 15.5185C41.7257 15.5185 24.0328 15.5185 6.32767 15.5185C6.32767 14.4263 6.32767 13.4416 6.32767 12.3836C24.0696 12.3836 41.7429 12.3836 59.4505 12.3836C59.4505 11.3231 59.4505 10.3409 59.4505 9.32686C40.6711 9.32931 21.958 9.32931 3.19327 9.32931ZM86.1861 49.7925C87.8048 49.7925 89.3254 49.7925 90.8681 49.7925C90.8681 47.0143 90.8681 44.3925 90.8681 41.7732C90.8681 40.527 90.8239 40.483 89.578 40.483C82.3576 40.483 75.1372 40.4855 67.9193 40.4806C66.2761 40.4806 65.7905 39.9943 65.788 38.3524C65.7831 34.0544 65.7831 29.7564 65.788 25.4608C65.7905 23.8286 66.2834 23.3375 67.9267 23.335C71.3848 23.3302 74.8405 23.3326 78.2986 23.3326C78.6223 23.3326 78.9461 23.3326 79.4709 23.3326C78.8774 22.3992 78.3599 21.6588 77.9209 20.877C77.6291 20.3565 77.271 20.183 76.6725 20.1879C72.329 20.2148 67.9855 20.2001 63.6395 20.2026C63.3698 20.2026 63.1 20.2319 62.8008 20.249C62.8008 32.2193 62.8008 44.1384 62.8008 56.0672C63.8823 56.0672 64.8781 56.0672 65.8518 56.0672C67.7672 50.8432 70.6098 48.3167 74.919 48.3313C80.1307 48.3484 83.194 51.2121 84.5453 56.0672C86.6423 56.0672 88.7098 56.0672 90.8043 56.0672C90.8043 55.0263 90.8043 54.0416 90.8043 52.947C89.2273 52.947 87.7165 52.947 86.1886 52.947C86.1861 51.8938 86.1861 50.958 86.1861 49.7925ZM88.4204 37.3261C88.3493 37.1331 88.3321 37.0427 88.2855 36.9718C86.1248 33.617 83.9763 30.2548 81.7764 26.9269C81.5973 26.6557 81.0798 26.4846 80.7169 26.4797C77.1116 26.448 73.5038 26.4602 69.8985 26.4626C69.6042 26.4626 69.3074 26.4871 69.0058 26.4993C69.0058 30.1571 69.0058 33.7245 69.0058 37.3261C75.5027 37.3261 81.9137 37.3261 88.4204 37.3261ZM75.1789 63.8862C78.6199 63.8984 81.4404 61.1227 81.4698 57.6994C81.4992 54.3055 78.6763 51.4491 75.2574 51.4125C71.7919 51.3783 68.9298 54.2078 68.9347 57.6652C68.942 61.1056 71.7232 63.8764 75.1789 63.8862ZM21.8844 63.8862C25.3376 63.9106 28.1385 61.1813 28.1998 57.7312C28.2611 54.3079 25.3891 51.4125 21.9334 51.4125C18.5121 51.4125 15.6818 54.22 15.6597 57.6359C15.6377 61.0469 18.441 63.8618 21.8844 63.8862Z" fill="black"/>
<path d="M0 0C0.9982 0 1.99395 0 3.06082 0C3.06082 0.957824 3.06082 1.94008 3.06082 3.11049C2.04545 3.11049 1.02273 3.11049 0 3.11049C0 2.07203 0 1.03601 0 0Z" fill="black"/>
<path d="M28.2096 0.00488281C28.2096 0.889404 28.2439 1.7104 28.1851 2.52161C28.1703 2.70732 27.8613 2.92478 27.6406 3.02985C27.4664 3.11292 27.2212 3.0494 27.0054 3.0494C20.4938 3.0494 13.9797 3.0494 7.46812 3.0494C7.10759 3.0494 6.74461 3.0494 6.32031 3.0494C6.32031 2.00605 6.32031 1.05067 6.32031 0.00488281C13.5628 0.00488281 20.8151 0.00488281 28.2096 0.00488281Z" fill="black"/>
<path d="M76.7143 56.1914C76.7143 57.203 76.7143 58.1633 76.7143 59.1797C75.6916 59.1797 74.7081 59.1797 73.6755 59.1797C73.6755 58.1828 73.6755 57.225 73.6755 56.1914C74.6541 56.1914 75.6376 56.1914 76.7143 56.1914Z" fill="black"/>
<path d="M23.4566 56.1865C23.4566 57.2128 23.4566 58.1706 23.4566 59.1846C22.4535 59.1846 21.4921 59.1846 20.4497 59.1846C20.4497 58.2195 20.4497 57.2372 20.4497 56.1865C21.4111 56.1865 22.3946 56.1865 23.4566 56.1865Z" fill="black"/>
</svg>
