<svg width="59" height="59" viewBox="0 0 59 59" fill="none" xmlns="http://www.w3.org/2000/svg">
<path d="M4.47609 59C3.96648 58.6681 3.73405 58.2005 3.62722 57.5929C2.44198 50.791 1.23219 43.9921 0.0325099 37.1917C-0.111856 36.3778 0.224516 35.8236 1.04307 35.6691C3.08007 35.2867 5.11563 34.8898 7.16707 34.6069C9.17087 34.3313 10.8498 35.6345 11.2699 37.6492C11.3118 37.8513 11.3551 38.0533 11.4057 38.2914C12.7237 37.8383 13.9898 37.4024 15.1967 36.9882C15.0697 35.6937 14.8805 34.4453 14.8387 33.1897C14.7477 30.4447 15.4652 27.8773 16.7169 25.4469C19.0325 20.9441 21.3366 16.4355 23.6695 11.9414C23.902 11.494 23.8803 11.1664 23.6594 10.7363C22.5391 8.55129 21.4463 6.35473 20.3578 4.15384C19.7572 2.93866 19.9348 1.72637 20.8068 0.861891C21.6224 0.0522528 22.8365 -0.161342 23.8919 0.353883C24.426 0.61366 24.9313 0.929722 25.4496 1.22414C26.4255 1.77833 26.7604 1.76101 27.6194 1.03652C28.8422 0.00462701 30.1833 -0.325867 31.6746 0.361099C32.0875 0.551602 32.4484 0.856119 32.8281 1.1159C33.4792 1.56185 33.983 1.55174 34.6168 1.0726C36.4199 -0.292673 37.8217 -0.346072 39.6393 1.03652C40.5372 1.7206 41.3269 1.82307 42.2422 1.15631C42.6277 0.87488 43.0665 0.667059 43.4881 0.437589C44.6791 -0.211854 45.8716 -0.0891813 46.7854 0.769526C47.6848 1.6138 47.9013 2.83475 47.3167 4.0456C46.2253 6.30855 45.1194 8.56428 43.9948 10.8099C43.8028 11.1938 43.797 11.481 43.9948 11.8692C46.4519 16.7083 48.8902 21.5575 51.3243 26.4095C51.5552 26.8699 51.74 27.3592 51.9017 27.8498C52.1125 28.4935 51.8295 29.0939 51.2506 29.3248C50.6818 29.5528 50.0827 29.2902 49.7766 28.6739C47.2012 23.4885 44.6213 18.3045 42.0632 13.1089C41.8481 12.6716 41.6128 12.5013 41.1147 12.5042C36.2741 12.5244 31.4321 12.5216 26.5915 12.5071C26.1396 12.5057 25.8841 12.6197 25.6632 13.0527C23.3707 17.567 21.0536 22.0698 18.7351 26.5712C17.251 29.4532 16.7645 32.4768 17.3896 35.6677C17.4113 35.7803 17.4387 35.8928 17.4719 36.0025C17.4878 36.0559 17.5239 36.1021 17.4993 36.0574C18.8463 35.7774 20.1427 35.3935 21.4651 35.2578C24.3596 34.9605 26.9582 35.8322 29.2926 37.5395C31.8652 39.4215 34.4248 41.3207 37.0205 43.1709C38.2794 44.0672 39.2914 45.0702 39.2697 46.7443C41.0165 46.9377 42.4862 46.5091 43.7176 45.2621C46.4028 42.5417 49.1126 39.8458 51.818 37.1455C53.2833 35.6836 55.0734 35.3372 56.7538 36.2017C57.7716 36.7256 58.4646 37.5395 58.7923 38.6508C58.8457 38.8312 58.928 39.0029 58.9973 39.179C58.9973 39.5629 58.9973 39.9468 58.9973 40.3307C58.7793 41.2125 58.4141 42.0149 57.8149 42.7163C56.4189 44.3529 55.0561 46.0169 53.6586 47.6521C52.3608 49.1689 51.1366 50.7694 49.7001 52.1419C46.4274 55.2679 42.4385 56.6952 37.9228 56.6909C32.7559 56.6865 27.5876 56.6894 22.4208 56.6894C21.3712 56.6894 20.8284 56.2897 20.8356 55.5262C20.8414 54.7627 21.3698 54.3861 22.4395 54.3861C27.6266 54.3861 32.8137 54.3933 37.9993 54.3832C42.3086 54.3745 46 52.8808 48.9105 49.6639C50.3657 48.0562 51.7285 46.3647 53.1288 44.7065C54.1697 43.474 55.2221 42.2516 56.2327 40.9946C57.122 39.8891 56.6196 38.4098 55.2828 38.1038C54.5234 37.9292 53.9474 38.2727 53.4334 38.7893C50.7208 41.5083 47.9995 44.2201 45.2912 46.9449C44.2893 47.9523 43.13 48.7027 41.7297 48.9308C40.7523 49.0895 39.7418 49.0376 38.7457 49.0938C38.5493 49.1054 38.3039 49.1299 38.1696 49.2483C36.7953 50.4591 35.3155 50.4995 33.7376 49.7101C31.8002 48.7388 29.834 47.8195 27.9254 46.7934C26.6088 46.0848 25.2821 45.5883 23.7634 45.7831C23.6334 45.8004 23.4948 45.7759 23.362 45.7557C22.7903 45.6706 22.376 45.2159 22.3616 44.6646C22.3471 44.1249 22.7384 43.5938 23.3158 43.5476C24.7869 43.4321 26.2421 43.3499 27.6396 44.083C30 45.3213 32.3964 46.4903 34.8016 47.642C35.1971 47.831 35.7616 47.9436 36.1557 47.8123C37.1981 47.4645 37.2399 46.2017 36.2698 45.4902C33.4532 43.4235 30.6352 41.3554 27.8056 39.306C25.6271 37.7286 23.1946 37.121 20.5584 37.6968C19.2173 37.9898 17.9223 38.5065 16.6144 38.9438C15.0191 39.4778 13.4297 40.0334 11.794 40.5962C12.0293 41.9413 12.256 43.2416 12.4841 44.542C13.0225 47.6218 13.587 50.6972 14.0894 53.7828C14.3623 55.4598 13.382 57.1311 11.807 57.6896C11.0736 57.9493 10.2767 58.0388 9.5058 58.1904C8.09823 58.466 6.68922 58.7287 5.28165 58.9971C5.01458 59 4.74606 59 4.47609 59ZM33.8733 10.211C36.3116 10.211 38.7485 10.2023 41.1869 10.2196C41.5824 10.2225 41.7976 10.1143 41.9751 9.73905C42.785 8.02452 43.6339 6.32731 44.4683 4.62289C44.7036 4.14085 44.9678 3.66893 45.1598 3.17102C45.2421 2.95887 45.1728 2.68899 45.1743 2.44509C44.9491 2.46674 44.6921 2.42777 44.503 2.52302C43.9385 2.80589 43.4217 3.19267 42.8442 3.4409C42.2913 3.67903 41.695 3.87819 41.1003 3.94747C39.9988 4.07302 39.1196 3.50151 38.2707 2.87228C37.328 2.17377 36.9469 2.19397 36.0229 2.90258C34.5562 4.02829 32.9595 4.04993 31.4566 2.96609C30.2107 2.06697 30.0505 2.07707 28.8104 3.04835C27.5154 4.06148 26.1295 4.1957 24.6729 3.42791C24.1806 3.16958 23.7201 2.84774 23.2191 2.6125C22.9939 2.50715 22.7023 2.54034 22.441 2.51148C22.4626 2.77558 22.4107 3.07433 22.5189 3.29658C23.5714 5.4484 24.6584 7.5829 25.7166 9.73183C25.8913 10.0854 26.0949 10.2269 26.5034 10.224C28.9591 10.2009 31.4162 10.211 33.8733 10.211ZM2.47374 37.7459C3.58102 44.0181 4.6782 50.2383 5.78693 56.522C7.50489 56.206 9.16942 55.9375 10.8152 55.5825C11.5991 55.4122 11.9355 54.7267 11.7882 53.8766C11.1487 50.2109 10.5034 46.5466 9.85949 42.8823C9.59386 41.3712 9.33256 39.8602 9.05971 38.3492C8.87347 37.3187 8.34221 36.7746 7.47024 36.8973C5.82302 37.1282 4.18736 37.4486 2.47374 37.7459Z" fill="black"/>
<path d="M29.0133 31.2622C28.9786 30.4757 29.341 29.9835 30.0152 29.8998C30.6518 29.8205 31.2264 30.2448 31.2683 31.0198C31.3563 32.6491 33.1652 33.4444 34.44 33.098C35.5401 32.7978 36.3211 31.9232 36.2734 30.9534C36.2229 29.9301 35.3206 29.0815 34.1845 28.904C33.3212 28.7684 32.4131 28.6803 31.6263 28.3368C29.8087 27.5416 28.9007 25.9411 29.0191 24.0664C29.1273 22.3591 30.3501 20.8495 32.1374 20.2405C32.4275 20.1423 32.6181 20.0644 32.6369 19.6733C32.6744 18.8983 33.1826 18.4263 33.8207 18.4538C34.453 18.4812 34.8933 18.9329 34.9063 19.6964C34.9135 20.1106 35.1676 20.1438 35.4332 20.2433C37.2262 20.9087 38.3177 22.1484 38.5544 24.0779C38.6526 24.8775 38.2325 25.4649 37.5294 25.5442C36.8928 25.6164 36.3904 25.1546 36.2821 24.3955C36.1276 23.3246 35.5213 22.6232 34.5237 22.3591C33.4612 22.0777 32.3178 22.4255 31.7115 23.2135C30.7255 24.4936 31.6119 26.2586 33.3414 26.5285C34.2422 26.6699 35.1849 26.7753 36.0078 27.1318C37.6853 27.8606 38.6916 29.5924 38.5732 31.2146C38.4389 33.0547 37.2508 34.5787 35.4621 35.1791C35.1286 35.2902 34.9092 35.3927 34.8933 35.8213C34.8702 36.4087 34.3996 36.8142 33.8409 36.8518C33.3038 36.8864 32.774 36.5198 32.6989 35.9339C32.6369 35.4547 32.4116 35.2844 31.9858 35.1387C30.2823 34.5527 29.0883 32.9623 29.0133 31.2622Z" fill="black"/>
<path d="M52.7489 32.6303C52.7345 33.2378 52.1859 33.7689 51.5853 33.7574C50.966 33.7459 50.4578 33.2162 50.4679 32.5956C50.4795 31.9765 51.0093 31.4584 51.6214 31.4699C52.2277 31.4815 52.7633 32.0328 52.7489 32.6303Z" fill="black"/>
<path d="M17.636 54.3971C18.2409 54.4072 18.7736 54.9527 18.7621 55.5546C18.752 56.1564 18.2005 56.6933 17.6028 56.6817C16.9979 56.6702 16.4652 56.1232 16.4767 55.5214C16.4883 54.9152 17.0326 54.387 17.636 54.3971Z" fill="black"/>
<path d="M8.24798 51.3155C8.85288 51.3212 9.37981 51.8581 9.37693 52.4671C9.37404 53.0848 8.85288 53.5972 8.2321 53.5928C7.607 53.5885 7.10605 53.0791 7.11038 52.4498C7.11471 51.835 7.6402 51.3111 8.24798 51.3155Z" fill="black"/>
</svg>
