<svg width="61" height="61" viewBox="0 0 61 61" fill="none" xmlns="http://www.w3.org/2000/svg">
<path d="M46.2285 61C44.9975 60.7498 43.8933 60.2792 43.0652 59.274C42.3415 58.3953 41.9521 57.3885 41.9506 56.2671C41.9357 49.8946 41.9178 43.5206 41.9566 37.148C41.9685 35.1227 42.9757 33.6006 44.8453 32.8039C46.6642 32.028 48.3936 32.3452 49.8917 33.6528C50.969 34.5925 51.4271 35.8375 51.4763 37.1897C52.2731 37.5427 53.0267 37.8778 53.7966 38.2188C53.7876 38.2263 53.8369 38.2024 53.8369 38.1786C53.7653 35.0854 53.8518 31.9788 53.5728 28.9035C53.2743 25.6227 51.9986 22.6129 50.1812 19.8563C50.0842 19.7088 49.841 19.5823 49.6619 19.5763C47.9862 19.5331 46.6001 18.851 45.4049 17.7162C42.3803 14.8479 38.7619 13.1308 34.7048 12.3474C29.4883 11.3407 24.533 12.1806 19.8358 14.6483C18.0616 15.5806 16.5501 16.8584 15.058 18.1689C14.0702 19.0372 12.9019 19.5018 11.5888 19.5346C11.1262 19.5465 10.9024 19.7312 10.6846 20.1199C8.93131 23.2488 8.07035 26.6532 7.5123 30.1575C7.08555 32.8366 7.14523 35.5337 7.16463 38.2397C7.95397 37.8882 8.72092 37.5472 9.53264 37.1868C9.58188 35.836 10.04 34.591 11.1173 33.6513C12.6154 32.3452 14.3447 32.025 16.1637 32.8024C18.0572 33.6125 19.0076 35.1554 19.0599 37.2061C19.1002 38.7743 19.0688 40.3425 19.0688 41.9107C19.0688 46.3576 18.9912 50.8075 19.0972 55.2515C19.1643 58.0959 17.9109 60.4326 14.7804 60.997C14.4626 60.997 14.1448 60.997 13.827 60.997C13.7912 60.9791 13.7583 60.9494 13.721 60.9449C11.3918 60.6456 9.66395 58.7095 9.53413 56.4444C9.52518 56.285 9.29688 56.0572 9.12529 56.0021C7.03929 55.3423 5.65609 53.9871 5.02343 51.8917C4.92793 51.5775 4.79215 51.4673 4.46388 51.4256C1.64078 51.0592 0.00988202 49.1961 0.0083899 46.3502C-0.000562865 41.6888 -0.00354712 37.0229 0.00540564 32.3586C0.00988202 29.8492 0.281449 27.3696 0.893221 24.9317C1.75269 21.5138 3.18214 18.3536 5.1428 15.4257C5.30843 15.1785 5.38303 14.8047 5.3517 14.5039C5.14131 12.4547 5.72473 10.6929 7.2079 9.26318C12.4438 4.22056 18.7376 1.37756 25.8893 0.344019C26.8279 0.208496 27.7724 0.113184 28.7139 0C29.9047 0 31.0969 0 32.2876 0C32.4398 0.0342529 32.592 0.0789307 32.7457 0.10127C34.4706 0.348486 36.2208 0.484009 37.9189 0.859302C43.9321 2.18921 49.2486 4.88477 53.71 9.18276C55.1902 10.6095 55.8811 12.3355 55.6319 14.3862C55.5737 14.8628 55.6826 15.2128 55.9378 15.591C58.2879 19.0744 59.8442 22.8839 60.5335 27.033C60.7305 28.2214 60.8469 29.4233 60.9991 30.6191C60.9991 36.1785 60.9991 41.7394 60.9991 47.2988C60.9797 47.3331 60.9484 47.3658 60.9409 47.4016C60.5664 49.6608 58.7549 51.293 56.5182 51.433C56.1661 51.4553 56.0691 51.6207 55.9781 51.9185C55.3424 53.9826 53.9831 55.3438 51.918 55.9708C51.5688 56.0765 51.4584 56.2299 51.4331 56.5754C51.3644 57.5464 51.0168 58.4132 50.411 59.1861C49.5813 60.2449 48.4503 60.7424 47.1775 60.9985C46.8627 61 46.5449 61 46.2285 61ZM31.0894 2.37239C24.3122 2.45579 18.566 4.08057 13.3286 7.41353C11.5664 8.53494 9.8803 9.78144 8.51799 11.375C6.81846 13.3616 7.81968 16.3997 10.3503 17.0624C11.7425 17.4273 12.8869 16.9478 13.9478 16.0185C15.049 15.0534 16.1681 14.075 17.4066 13.308C22.4052 10.2104 27.853 9.03533 33.6976 9.76804C36.7416 10.1493 39.6065 11.086 42.3072 12.5351C44.2276 13.5656 45.8958 14.9268 47.5177 16.3684C48.5906 17.3216 49.8917 17.4407 51.1973 16.8763C53.5981 15.8383 54.0413 12.7749 52.0612 10.8984C46.0226 5.17517 38.7351 2.58833 31.0894 2.37239ZM16.6814 46.7031C16.6814 46.2668 16.6814 45.8289 16.6814 45.3926C16.6814 42.6732 16.6934 39.9538 16.6755 37.2344C16.6665 35.7347 15.4832 34.6595 14.0538 34.7995C12.7855 34.9246 11.92 35.9522 11.9171 37.367C11.9111 41.5354 11.9156 45.7038 11.9156 49.8738C11.9156 51.9587 11.9081 54.0422 11.9185 56.1271C11.9245 57.2724 12.5736 58.1749 13.5733 58.4891C15.1565 58.9865 16.6665 57.8472 16.6755 56.1123C16.6934 52.9759 16.6814 49.8395 16.6814 46.7031ZM49.0874 46.7046C49.0874 43.5682 49.0964 40.4319 49.0844 37.2955C49.0785 35.769 47.9609 34.6967 46.521 34.795C45.2318 34.8844 44.3261 35.9298 44.3246 37.3655C44.3201 43.4595 44.3231 49.5536 44.3231 55.6491C44.3231 55.9067 44.3156 56.1659 44.338 56.422C44.4245 57.4094 45.1005 58.2285 46.0375 58.501C47.6102 58.9567 49.074 57.8279 49.083 56.1137C49.0979 52.9774 49.0874 49.841 49.0874 46.7046ZM6.64089 17.5181C4.50417 20.8675 3.12992 24.4864 2.6599 28.3942C2.09886 33.0571 2.45697 37.7527 2.40475 42.4334C2.40475 42.4468 2.42265 42.4617 2.41221 42.4468C3.17916 42.2413 3.93567 42.0403 4.73993 41.8243C4.72351 41.8586 4.75335 41.8243 4.75485 41.7886C4.76231 41.4907 4.76231 41.1929 4.76828 40.8965C4.82945 37.2478 4.57878 33.5917 5.1234 29.9579C5.5979 26.7858 6.38723 23.706 7.67643 20.7632C7.94352 20.1541 8.26582 19.5703 8.54485 19.0119C7.8913 18.4996 7.28699 18.026 6.64089 17.5181ZM52.5029 18.991C52.5716 19.1236 52.6357 19.265 52.7148 19.3991C55.1634 23.5094 56.2795 27.9668 56.2392 32.7384C56.2153 35.5769 56.2347 38.4154 56.2347 41.2539C56.2347 41.4669 56.2347 41.6813 56.2347 41.8198C57.0658 42.0417 57.8209 42.2443 58.5983 42.4513C58.6027 42.3679 58.6162 42.2547 58.6162 42.1415C58.6162 38.7669 58.6311 35.3922 58.6102 32.0176C58.5878 28.1589 57.8044 24.4551 56.2108 20.939C55.6752 19.758 55.0142 18.6321 54.4084 17.475C53.7339 18.0111 53.149 18.4757 52.5029 18.991ZM9.50578 39.8049C8.14197 40.3053 7.20044 41.4848 7.17508 42.8787C7.12882 45.4149 7.13031 47.9541 7.17358 50.4918C7.19746 51.9185 8.20315 53.174 9.50578 53.5626C9.50578 48.9862 9.50578 44.4171 9.50578 39.8049ZM51.5121 39.8332C51.5121 44.4365 51.5121 48.9996 51.5121 53.579C52.87 53.092 53.8115 51.8857 53.8324 50.462C53.8712 47.9452 53.8727 45.4253 53.8309 42.9085C53.807 41.4803 52.8118 40.2323 51.5121 39.8332ZM4.73993 44.3471C3.37761 44.3784 2.35252 45.4462 2.39132 46.7657C2.42862 48.039 3.46565 49.0457 4.73993 49.0293C4.73993 47.4686 4.73993 45.9079 4.73993 44.3471ZM56.2556 49.0532C57.6955 48.9683 58.6908 47.8871 58.6087 46.5512C58.5311 45.2943 57.4553 44.2935 56.2556 44.3829C56.2556 45.9242 56.2556 47.4656 56.2556 49.0532Z" fill="black"/>
<path d="M28.0864 48.4192C29.0503 45.049 30.0127 41.6788 30.9766 38.3101C31.2109 37.491 31.4407 36.6704 31.6839 35.8543C31.8973 35.138 32.3404 34.7687 32.9313 34.791C33.4983 34.8133 33.9042 35.1856 34.0832 35.8901C34.7547 38.5409 35.4187 41.1933 36.0872 43.8442C36.1245 43.9946 36.1752 44.142 36.2274 44.3148C36.9078 44.3148 37.5614 44.3044 38.2149 44.3178C38.9998 44.3342 39.5265 44.8003 39.5474 45.4719C39.5698 46.157 39.0222 46.6768 38.2164 46.6931C37.2838 46.711 36.3513 46.708 35.4187 46.6946C34.6562 46.6827 34.2683 46.3685 34.0728 45.6045C33.6639 44.0125 33.267 42.4175 32.8269 40.6691C32.7284 40.9476 32.6672 41.092 32.6239 41.241C31.56 44.9552 30.4962 48.6694 29.4338 52.3836C29.4174 52.4402 29.4069 52.4998 29.3905 52.5563C29.1339 53.435 28.734 53.8371 28.1177 53.8371C27.5224 53.8371 27.1299 53.4648 26.8479 52.6189C26.2391 50.796 25.6244 48.9747 25.0335 47.1459C24.9261 46.8123 24.7843 46.6663 24.4157 46.6887C23.8622 46.7214 23.3041 46.7125 22.749 46.6931C21.9776 46.6648 21.4494 46.163 21.4554 45.4943C21.4613 44.8226 21.991 44.3327 22.7655 44.3193C23.698 44.3029 24.6306 44.3088 25.5632 44.3178C26.3152 44.3252 26.6748 44.5888 26.9255 45.3186C27.2776 46.3447 27.6164 47.3767 27.9595 48.4058C28.0028 48.4103 28.0446 48.4147 28.0864 48.4192Z" fill="black"/>
<path d="M30.5844 4.59375C32.8211 4.88118 35.0608 5.14775 37.293 5.46645C38.1286 5.5856 38.5509 6.17236 38.4241 6.85295C38.2898 7.56929 37.6885 7.93267 36.835 7.77183C33.9566 7.22974 31.0604 6.98103 28.1359 7.25505C25.7022 7.48291 23.3058 7.89543 20.9975 8.73686C20.7558 8.82473 20.5156 8.92004 20.2664 8.98557C19.6486 9.14939 19.0578 8.87239 18.8399 8.33179C18.5952 7.72268 18.8175 7.05996 19.4621 6.79636C20.3216 6.4449 21.2049 6.13662 22.1002 5.89089C24.8666 5.13137 27.6912 4.76501 30.5621 4.75608C30.5695 4.70247 30.577 4.64885 30.5844 4.59375Z" fill="black"/>
<path d="M41.0203 8.95169C40.3757 8.94573 39.852 8.41258 39.8595 7.77071C39.8669 7.13777 40.416 6.59419 41.0442 6.60164C41.6769 6.60908 42.2081 7.15564 42.2006 7.79602C42.1946 8.44385 41.6694 8.95764 41.0203 8.95169Z" fill="black"/>
</svg>
