<svg width="18" height="18" viewBox="0 0 18 18" fill="none" xmlns="http://www.w3.org/2000/svg">
<path d="M14.8718 17.9998C10.9588 17.9998 7.04532 17.9998 3.13232 17.9998C3.09378 17.988 3.05618 17.9706 3.0167 17.9654C1.34078 17.7615 0.00840158 16.2749 0.00605171 14.5892C0.00135198 11.3383 -0.00757753 8.08706 0.0102815 4.83626C0.0178011 3.47474 0.669655 2.46336 1.84882 1.79458C2.37989 1.49333 2.96219 1.3796 3.56845 1.37866C3.75879 1.37819 3.9496 1.37866 4.15028 1.37866C4.15028 1.30534 4.14934 1.25928 4.15028 1.21323C4.15451 0.990928 4.13242 0.764401 4.16955 0.547273C4.2283 0.200902 4.57091 -0.0284452 4.92433 0.00492298C5.27258 0.0373512 5.54751 0.333435 5.55503 0.690145C5.55973 0.916202 5.55597 1.14226 5.55597 1.36456C7.86684 1.36456 10.1528 1.36456 12.4477 1.36456C12.4477 1.16905 12.4416 0.987638 12.4496 0.807168C12.4552 0.685915 12.4604 0.558552 12.5003 0.446228C12.6108 0.139335 12.9426 -0.0434843 13.2603 0.0082128C13.5986 0.0631997 13.8454 0.345654 13.8515 0.692025C13.8557 0.918082 13.8524 1.14414 13.8524 1.38054C14.1142 1.38054 14.3482 1.3749 14.5818 1.38148C16.1915 1.42565 17.522 2.49813 17.9074 4.06033C17.9407 4.19474 17.9689 4.33056 17.9995 4.46545C17.9995 7.9456 17.9995 11.4258 17.9995 14.9059C17.9882 14.9379 17.9713 14.9694 17.9661 15.0023C17.7509 16.3125 17.0285 17.2304 15.8099 17.7441C15.5143 17.8691 15.1857 17.9166 14.8718 17.9998ZM16.5947 6.9549C11.5218 6.9549 6.47054 6.9549 1.40939 6.9549C1.40939 7.03244 1.40939 7.09636 1.40939 7.16028C1.40939 9.5797 1.40939 11.9991 1.40939 14.4186C1.40939 15.6894 2.30187 16.5908 3.57174 16.5917C7.19148 16.5941 10.8112 16.5931 14.431 16.5908C14.5997 16.5908 14.7726 16.58 14.9367 16.5433C15.9358 16.3224 16.5938 15.4986 16.5943 14.4726C16.5957 12.024 16.5947 9.57547 16.5947 7.12644C16.5947 7.07427 16.5947 7.02163 16.5947 6.9549ZM13.852 2.81725C13.852 3.2844 13.8562 3.74075 13.8505 4.19662C13.8463 4.51667 13.6024 4.79537 13.2936 4.85176C12.8377 4.93448 12.4514 4.61537 12.4486 4.14915C12.4458 3.7055 12.4481 3.26184 12.4481 2.80926C10.1443 2.80926 7.85885 2.80926 5.55691 2.80926C5.55691 2.8774 5.55691 2.93474 5.55691 2.99208C5.55691 3.38451 5.5602 3.77693 5.5555 4.16936C5.55127 4.56273 5.23451 4.87103 4.84725 4.86774C4.46422 4.86398 4.1578 4.5632 4.15263 4.17641C4.14793 3.79573 4.15122 3.41505 4.15075 3.03437C4.15075 2.96012 4.15075 2.88633 4.15075 2.81537C2.21023 2.58602 1.21106 3.80842 1.42866 5.51725C6.47806 5.51725 11.5279 5.51725 16.5769 5.51725C16.7945 3.73182 15.7177 2.58461 13.852 2.81725Z" fill="white"/>
<path d="M13.1564 9.00112C13.3905 9.00112 13.6245 8.9983 13.8586 9.00159C14.2407 9.00723 14.5476 9.31883 14.5504 9.69856C14.5532 10.0769 14.2463 10.3993 13.8666 10.404C13.3924 10.4096 12.9182 10.4092 12.4444 10.4045C12.0642 10.4007 11.7545 10.0839 11.7517 9.70702C11.7484 9.32447 12.0642 9.00582 12.4538 9.00159C12.6879 8.99924 12.9219 9.00112 13.1564 9.00112Z" fill="white"/>
<path d="M9.00235 13.1484C9.2425 13.1484 9.48219 13.1432 9.72235 13.1498C10.0936 13.1592 10.3944 13.4727 10.3977 13.8449C10.401 14.2124 10.0979 14.5433 9.73081 14.5503C9.24532 14.5597 8.75937 14.5588 8.27342 14.5508C7.90308 14.5447 7.60229 14.2251 7.59994 13.8534C7.59759 13.4722 7.89838 13.1583 8.28235 13.1494C8.52203 13.1442 8.76219 13.1484 9.00235 13.1484Z" fill="white"/>
<path d="M4.85952 9.00084C5.09357 9.00084 5.32762 8.99802 5.56167 9.00131C5.9414 9.00742 6.25065 9.32325 6.25206 9.7011C6.25347 10.078 5.94422 10.3995 5.56496 10.4037C5.09075 10.4089 4.61655 10.4089 4.14281 10.4037C3.76167 10.3995 3.4543 10.0823 3.45383 9.70393C3.45289 9.3256 3.76073 9.00789 4.13999 9.00131C4.37968 8.99755 4.61937 9.00084 4.85952 9.00084Z" fill="white"/>
<path d="M9.01082 9.00122C9.24486 9.00122 9.47891 8.99793 9.71296 9.00216C10.0903 9.00874 10.401 9.33161 10.3972 9.70759C10.394 10.0784 10.0903 10.3989 9.72189 10.4041C9.24204 10.4107 8.7622 10.4102 8.28188 10.4046C7.90167 10.3999 7.59713 10.0789 7.59948 9.69913C7.60183 9.31798 7.90731 9.0078 8.29034 9.00216C8.53097 8.9984 8.77066 9.00122 9.01082 9.00122Z" fill="white"/>
<path d="M4.86328 13.1487C5.09733 13.1487 5.33185 13.1445 5.56542 13.1497C5.94798 13.1581 6.25346 13.4739 6.25205 13.8518C6.25017 14.2282 5.94093 14.5474 5.56072 14.5516C5.08652 14.5572 4.61232 14.5577 4.13858 14.5511C3.75978 14.546 3.45195 14.2231 3.45336 13.8466C3.45477 13.4655 3.75696 13.1572 4.14328 13.1492C4.38344 13.1445 4.6236 13.1487 4.86328 13.1487Z" fill="white"/>
<path d="M13.155 13.1491C13.3952 13.1491 13.6349 13.1439 13.875 13.15C14.2482 13.1594 14.5471 13.4706 14.5504 13.8442C14.5537 14.2131 14.2524 14.5435 13.8854 14.5506C13.3938 14.56 12.9017 14.5609 12.4106 14.5501C12.0454 14.5421 11.7423 14.2018 11.7517 13.8371C11.7611 13.4701 12.0562 13.1613 12.4177 13.1505C12.6635 13.1435 12.9092 13.1491 13.155 13.1491Z" fill="white"/>
</svg>
